<svg xmlns="http://www.w3.org/2000/svg" xmlns:xlink="http://www.w3.org/1999/xlink" width="300" zoomAndPan="magnify" viewBox="0 0 224.87999 225" height="300" preserveAspectRatio="xMidYMid meet" version="1.0"><defs><clipPath id="74f1e20f19"><path d="M 0 60 L 224.761719 60 L 224.761719 165 L 0 165 Z M 0 60 " clip-rule="nonzero"/></clipPath><clipPath id="c48a7f47f2"><path d="M 81 29.996094 L 144 29.996094 L 144 194.910156 L 81 194.910156 Z M 81 29.996094 " clip-rule="nonzero"/></clipPath></defs><g clip-path="url(#74f1e20f19)"><path fill="#0e4bb3" d="M 3.277344 105.210938 L 44.011719 64.152344 C 44.964844 63.144531 46.078125 62.367188 47.347656 61.816406 C 48.621094 61.269531 49.949219 60.992188 51.335938 60.988281 C 52.359375 60.992188 53.359375 61.148438 54.335938 61.453125 C 55.3125 61.757812 56.222656 62.199219 57.066406 62.777344 C 57.910156 63.351562 58.652344 64.039062 59.292969 64.835938 C 59.933594 65.632812 60.445312 66.503906 60.824219 67.453125 C 61.203125 68.402344 61.4375 69.386719 61.523438 70.40625 C 61.609375 71.421875 61.546875 72.429688 61.332031 73.429688 C 61.117188 74.429688 60.765625 75.375 60.269531 76.269531 C 59.773438 77.164062 59.15625 77.964844 58.421875 78.675781 L 24.851562 112.515625 L 58.421875 146.351562 C 59.15625 147.0625 59.773438 147.863281 60.269531 148.757812 C 60.765625 149.652344 61.121094 150.597656 61.332031 151.597656 C 61.546875 152.597656 61.609375 153.605469 61.523438 154.625 C 61.4375 155.640625 61.203125 156.625 60.824219 157.574219 C 60.445312 158.523438 59.933594 159.394531 59.292969 160.191406 C 58.652344 160.988281 57.910156 161.675781 57.066406 162.253906 C 56.222656 162.828125 55.3125 163.269531 54.335938 163.574219 C 53.359375 163.878906 52.359375 164.035156 51.335938 164.042969 C 49.949219 164.035156 48.621094 163.757812 47.347656 163.210938 C 46.078125 162.660156 44.964844 161.882812 44.011719 160.875 L 3.277344 119.734375 C 2.316406 118.78125 1.574219 117.675781 1.058594 116.425781 C 0.542969 115.171875 0.289062 113.867188 0.296875 112.515625 C 0.289062 111.148438 0.542969 109.832031 1.058594 108.566406 C 1.574219 107.300781 2.3125 106.183594 3.277344 105.210938 Z M 180.789062 64.152344 C 179.839844 63.140625 178.730469 62.359375 177.453125 61.808594 C 176.179688 61.257812 174.851562 60.984375 173.460938 60.988281 C 172.789062 60.992188 172.125 61.0625 171.46875 61.195312 C 170.808594 61.332031 170.171875 61.53125 169.554688 61.792969 C 168.933594 62.054688 168.347656 62.375 167.792969 62.75 C 167.234375 63.128906 166.722656 63.558594 166.25 64.035156 C 165.78125 64.515625 165.359375 65.035156 164.992188 65.597656 C 164.625 66.15625 164.3125 66.75 164.0625 67.371094 C 163.808594 67.996094 163.621094 68.636719 163.496094 69.296875 C 163.371094 69.957031 163.3125 70.621094 163.320312 71.292969 C 163.324219 72.675781 163.59375 74.007812 164.121094 75.285156 C 164.652344 76.5625 165.402344 77.695312 166.378906 78.675781 L 199.949219 112.515625 L 166.378906 146.351562 C 165.402344 147.335938 164.652344 148.464844 164.121094 149.742188 C 163.59375 151.023438 163.324219 152.351562 163.320312 153.734375 C 163.3125 154.40625 163.371094 155.074219 163.496094 155.734375 C 163.621094 156.390625 163.808594 157.035156 164.0625 157.65625 C 164.3125 158.277344 164.625 158.871094 164.992188 159.433594 C 165.359375 159.992188 165.78125 160.511719 166.25 160.992188 C 166.722656 161.472656 167.234375 161.898438 167.792969 162.277344 C 168.347656 162.652344 168.933594 162.972656 169.554688 163.234375 C 170.171875 163.496094 170.808594 163.695312 171.46875 163.832031 C 172.125 163.964844 172.789062 164.035156 173.460938 164.042969 C 174.851562 164.042969 176.179688 163.769531 177.453125 163.222656 C 178.730469 162.671875 179.839844 161.890625 180.789062 160.875 L 221.605469 119.734375 C 222.566406 118.78125 223.304688 117.675781 223.820312 116.425781 C 224.335938 115.171875 224.589844 113.867188 224.582031 112.515625 C 224.589844 111.148438 224.335938 109.832031 223.820312 108.566406 C 223.304688 107.300781 222.566406 106.183594 221.605469 105.210938 Z M 180.789062 64.152344 " fill-opacity="1" fill-rule="nonzero"/></g><g clip-path="url(#c48a7f47f2)"><path fill="#aec9ea" d="M 101.8125 187.25 L 142.628906 43.378906 C 142.949219 42.347656 143.109375 41.292969 143.113281 40.214844 C 143.121094 39.589844 143.070312 38.972656 142.964844 38.359375 C 142.855469 37.746094 142.695312 37.148438 142.480469 36.566406 C 142.265625 35.980469 141.996094 35.421875 141.679688 34.886719 C 141.359375 34.351562 140.996094 33.851562 140.585938 33.382812 C 140.175781 32.914062 139.722656 32.488281 139.234375 32.101562 C 138.746094 31.714844 138.226562 31.378906 137.675781 31.085938 C 137.125 30.796875 136.554688 30.558594 135.960938 30.371094 C 135.363281 30.1875 134.757812 30.058594 134.140625 29.980469 C 133.523438 29.90625 132.902344 29.890625 132.28125 29.929688 C 131.660156 29.964844 131.046875 30.0625 130.441406 30.210938 C 129.839844 30.363281 129.253906 30.566406 128.6875 30.824219 C 128.121094 31.085938 127.582031 31.390625 127.070312 31.75 C 126.5625 32.105469 126.085938 32.503906 125.648438 32.949219 C 125.214844 33.390625 124.820312 33.871094 124.472656 34.386719 C 124.121094 34.902344 123.824219 35.445312 123.574219 36.015625 C 123.324219 36.585938 123.128906 37.171875 122.984375 37.78125 L 82.25 181.648438 C 81.992188 182.578125 81.859375 183.527344 81.847656 184.492188 C 81.84375 185.042969 81.886719 185.589844 81.972656 186.136719 C 82.058594 186.679688 82.191406 187.214844 82.363281 187.738281 C 82.539062 188.261719 82.753906 188.765625 83.007812 189.253906 C 83.265625 189.742188 83.558594 190.207031 83.894531 190.648438 C 84.226562 191.089844 84.589844 191.5 84.988281 191.882812 C 85.390625 192.261719 85.816406 192.609375 86.273438 192.917969 C 86.730469 193.230469 87.207031 193.503906 87.707031 193.734375 C 88.207031 193.96875 88.722656 194.160156 89.253906 194.308594 C 90.175781 194.570312 91.113281 194.703125 92.070312 194.714844 C 92.625 194.714844 93.171875 194.667969 93.714844 194.578125 C 94.257812 194.488281 94.789062 194.355469 95.3125 194.179688 C 95.835938 194.003906 96.339844 193.785156 96.824219 193.523438 C 97.3125 193.265625 97.773438 192.96875 98.210938 192.632812 C 98.648438 192.296875 99.054688 191.929688 99.429688 191.527344 C 99.808594 191.125 100.148438 190.695312 100.457031 190.238281 C 100.761719 189.78125 101.03125 189.300781 101.257812 188.800781 C 101.484375 188.296875 101.671875 187.78125 101.8125 187.25 Z M 101.8125 187.25 " fill-opacity="1" fill-rule="evenodd"/></g></svg>